<mxfile host="app.diagrams.net" agent="Mozilla/5.0 (Windows NT 10.0; Win64; x64) AppleWebKit/537.36 (KHTML, like Gecko) Chrome/135.0.0.0 Safari/537.36" version="26.2.12">
  <diagram name="Page-1" id="BWGIS6NnS3aI6rmdfIs8">
    <mxGraphModel dx="874" dy="489" grid="1" gridSize="10" guides="1" tooltips="1" connect="1" arrows="1" fold="1" page="1" pageScale="1" pageWidth="850" pageHeight="1100" background="light-dark(#FFFFFF,#FFFFFF)" math="0" shadow="0">
      <root>
        <mxCell id="0" />
        <mxCell id="1" parent="0" />
        <mxCell id="oFbmC6ASV3C3-3p9T8uc-31" style="edgeStyle=orthogonalEdgeStyle;shape=connector;rounded=0;orthogonalLoop=1;jettySize=auto;html=1;exitX=1;exitY=0.5;exitDx=0;exitDy=0;entryX=0.5;entryY=0;entryDx=0;entryDy=0;strokeColor=light-dark(#000000,#000000);align=center;verticalAlign=middle;fontFamily=Helvetica;fontSize=12;fontColor=light-dark(#000000,#000000);labelBackgroundColor=default;endArrow=classic;" edge="1" parent="1" source="oFbmC6ASV3C3-3p9T8uc-7" target="oFbmC6ASV3C3-3p9T8uc-22">
          <mxGeometry relative="1" as="geometry" />
        </mxCell>
        <mxCell id="oFbmC6ASV3C3-3p9T8uc-7" value="" style="rounded=0;whiteSpace=wrap;html=1;fontColor=light-dark(#000000,#000000);fillColor=none;strokeColor=light-dark(#000000,#000000);strokeWidth=2;" vertex="1" parent="1">
          <mxGeometry x="120" y="280" width="120" height="40" as="geometry" />
        </mxCell>
        <mxCell id="oFbmC6ASV3C3-3p9T8uc-9" value="Analysis" style="text;html=1;align=center;verticalAlign=middle;whiteSpace=wrap;rounded=0;fontFamily=Helvetica;fontSize=12;fontColor=light-dark(#000000,#000000);" vertex="1" parent="1">
          <mxGeometry x="150" y="285" width="60" height="30" as="geometry" />
        </mxCell>
        <mxCell id="oFbmC6ASV3C3-3p9T8uc-10" value="Design&lt;span style=&quot;color: rgba(0, 0, 0, 0); font-family: monospace; font-size: 0px; text-align: start; text-wrap-mode: nowrap;&quot;&gt;%3CmxGraphModel%3E%3Croot%3E%3CmxCell%20id%3D%220%22%2F%3E%3CmxCell%20id%3D%221%22%20parent%3D%220%22%2F%3E%3CmxCell%20id%3D%222%22%20value%3D%22Analysis%22%20style%3D%22text%3Bhtml%3D1%3Balign%3Dcenter%3BverticalAlign%3Dmiddle%3BwhiteSpace%3Dwrap%3Brounded%3D0%3BfontFamily%3DHelvetica%3BfontSize%3D12%3BfontColor%3Dlight-dark(%23000000%2C%23000000)%3B%22%20vertex%3D%221%22%20parent%3D%221%22%3E%3CmxGeometry%20x%3D%22360%22%20y%3D%22330%22%20width%3D%2260%22%20height%3D%2230%22%20as%3D%22geometry%22%2F%3E%3C%2FmxCell%3E%3C%2Froot%3E%3C%2FmxGraphModel%3E&lt;/span&gt;" style="text;html=1;align=center;verticalAlign=middle;whiteSpace=wrap;rounded=0;fontFamily=Helvetica;fontSize=12;fontColor=light-dark(#000000,#000000);" vertex="1" parent="1">
          <mxGeometry x="230" y="335" width="60" height="30" as="geometry" />
        </mxCell>
        <mxCell id="oFbmC6ASV3C3-3p9T8uc-11" value="Coding" style="text;html=1;align=center;verticalAlign=middle;whiteSpace=wrap;rounded=0;fontFamily=Helvetica;fontSize=12;fontColor=light-dark(#000000,#000000);" vertex="1" parent="1">
          <mxGeometry x="310" y="385" width="60" height="30" as="geometry" />
        </mxCell>
        <mxCell id="oFbmC6ASV3C3-3p9T8uc-12" value="Testing" style="text;html=1;align=center;verticalAlign=middle;whiteSpace=wrap;rounded=0;fontFamily=Helvetica;fontSize=12;fontColor=light-dark(#000000,#000000);" vertex="1" parent="1">
          <mxGeometry x="395" y="435" width="60" height="30" as="geometry" />
        </mxCell>
        <mxCell id="oFbmC6ASV3C3-3p9T8uc-13" value="Implementation" style="text;html=1;align=center;verticalAlign=middle;whiteSpace=wrap;rounded=0;fontFamily=Helvetica;fontSize=12;fontColor=light-dark(#000000,#000000);" vertex="1" parent="1">
          <mxGeometry x="470" y="485" width="60" height="30" as="geometry" />
        </mxCell>
        <mxCell id="oFbmC6ASV3C3-3p9T8uc-14" value="Maintenance" style="text;html=1;align=center;verticalAlign=middle;whiteSpace=wrap;rounded=0;fontFamily=Helvetica;fontSize=12;fontColor=light-dark(#000000,#000000);" vertex="1" parent="1">
          <mxGeometry x="550" y="535" width="60" height="30" as="geometry" />
        </mxCell>
        <mxCell id="oFbmC6ASV3C3-3p9T8uc-26" style="edgeStyle=orthogonalEdgeStyle;shape=connector;rounded=0;orthogonalLoop=1;jettySize=auto;html=1;exitX=0;exitY=0.5;exitDx=0;exitDy=0;entryX=0.5;entryY=1;entryDx=0;entryDy=0;strokeColor=light-dark(#000000,#000000);align=center;verticalAlign=middle;fontFamily=Helvetica;fontSize=12;fontColor=light-dark(#000000,#000000);labelBackgroundColor=default;endArrow=classic;" edge="1" parent="1" source="oFbmC6ASV3C3-3p9T8uc-21" target="oFbmC6ASV3C3-3p9T8uc-7">
          <mxGeometry relative="1" as="geometry" />
        </mxCell>
        <mxCell id="oFbmC6ASV3C3-3p9T8uc-21" value="" style="rounded=0;whiteSpace=wrap;html=1;fontColor=light-dark(#000000,#000000);fillColor=none;strokeColor=light-dark(#000000,#000000);strokeWidth=2;" vertex="1" parent="1">
          <mxGeometry x="520" y="530" width="120" height="40" as="geometry" />
        </mxCell>
        <mxCell id="oFbmC6ASV3C3-3p9T8uc-30" style="edgeStyle=orthogonalEdgeStyle;shape=connector;rounded=0;orthogonalLoop=1;jettySize=auto;html=1;exitX=0.5;exitY=1;exitDx=0;exitDy=0;strokeColor=light-dark(#000000,#000000);align=center;verticalAlign=middle;fontFamily=Helvetica;fontSize=12;fontColor=light-dark(#000000,#000000);labelBackgroundColor=default;endArrow=none;startFill=0;" edge="1" parent="1" source="oFbmC6ASV3C3-3p9T8uc-22">
          <mxGeometry relative="1" as="geometry">
            <mxPoint x="260" y="550" as="targetPoint" />
          </mxGeometry>
        </mxCell>
        <mxCell id="oFbmC6ASV3C3-3p9T8uc-32" style="edgeStyle=orthogonalEdgeStyle;shape=connector;rounded=0;orthogonalLoop=1;jettySize=auto;html=1;exitX=1;exitY=0.5;exitDx=0;exitDy=0;entryX=0.5;entryY=0;entryDx=0;entryDy=0;strokeColor=light-dark(#000000,#000000);align=center;verticalAlign=middle;fontFamily=Helvetica;fontSize=12;fontColor=light-dark(#000000,#000000);labelBackgroundColor=default;endArrow=classic;" edge="1" parent="1" source="oFbmC6ASV3C3-3p9T8uc-22" target="oFbmC6ASV3C3-3p9T8uc-24">
          <mxGeometry relative="1" as="geometry" />
        </mxCell>
        <mxCell id="oFbmC6ASV3C3-3p9T8uc-22" value="" style="rounded=0;whiteSpace=wrap;html=1;fontColor=light-dark(#000000,#000000);fillColor=none;strokeColor=light-dark(#000000,#000000);strokeWidth=2;" vertex="1" parent="1">
          <mxGeometry x="200" y="330" width="120" height="40" as="geometry" />
        </mxCell>
        <mxCell id="oFbmC6ASV3C3-3p9T8uc-28" style="edgeStyle=orthogonalEdgeStyle;shape=connector;rounded=0;orthogonalLoop=1;jettySize=auto;html=1;exitX=0.5;exitY=1;exitDx=0;exitDy=0;strokeColor=light-dark(#000000,#000000);align=center;verticalAlign=middle;fontFamily=Helvetica;fontSize=12;fontColor=light-dark(#000000,#000000);labelBackgroundColor=default;endArrow=none;startFill=0;" edge="1" parent="1" source="oFbmC6ASV3C3-3p9T8uc-23">
          <mxGeometry relative="1" as="geometry">
            <mxPoint x="425" y="550" as="targetPoint" />
          </mxGeometry>
        </mxCell>
        <mxCell id="oFbmC6ASV3C3-3p9T8uc-34" style="edgeStyle=orthogonalEdgeStyle;shape=connector;rounded=0;orthogonalLoop=1;jettySize=auto;html=1;exitX=1;exitY=0.5;exitDx=0;exitDy=0;entryX=0.5;entryY=0;entryDx=0;entryDy=0;strokeColor=light-dark(#000000,#000000);align=center;verticalAlign=middle;fontFamily=Helvetica;fontSize=12;fontColor=light-dark(#000000,#000000);labelBackgroundColor=default;endArrow=classic;" edge="1" parent="1" source="oFbmC6ASV3C3-3p9T8uc-23" target="oFbmC6ASV3C3-3p9T8uc-25">
          <mxGeometry relative="1" as="geometry" />
        </mxCell>
        <mxCell id="oFbmC6ASV3C3-3p9T8uc-23" value="" style="rounded=0;whiteSpace=wrap;html=1;fontColor=light-dark(#000000,#000000);fillColor=none;strokeColor=light-dark(#000000,#000000);strokeWidth=2;" vertex="1" parent="1">
          <mxGeometry x="365" y="430" width="120" height="40" as="geometry" />
        </mxCell>
        <mxCell id="oFbmC6ASV3C3-3p9T8uc-29" style="edgeStyle=orthogonalEdgeStyle;shape=connector;rounded=0;orthogonalLoop=1;jettySize=auto;html=1;exitX=0.5;exitY=1;exitDx=0;exitDy=0;strokeColor=light-dark(#000000,#000000);align=center;verticalAlign=middle;fontFamily=Helvetica;fontSize=12;fontColor=light-dark(#000000,#000000);labelBackgroundColor=default;endArrow=none;startFill=0;" edge="1" parent="1" source="oFbmC6ASV3C3-3p9T8uc-24">
          <mxGeometry relative="1" as="geometry">
            <mxPoint x="340" y="550" as="targetPoint" />
          </mxGeometry>
        </mxCell>
        <mxCell id="oFbmC6ASV3C3-3p9T8uc-33" style="edgeStyle=orthogonalEdgeStyle;shape=connector;rounded=0;orthogonalLoop=1;jettySize=auto;html=1;exitX=1;exitY=0.5;exitDx=0;exitDy=0;entryX=0.5;entryY=0;entryDx=0;entryDy=0;strokeColor=light-dark(#000000,#000000);align=center;verticalAlign=middle;fontFamily=Helvetica;fontSize=12;fontColor=light-dark(#000000,#000000);labelBackgroundColor=default;endArrow=classic;" edge="1" parent="1" source="oFbmC6ASV3C3-3p9T8uc-24" target="oFbmC6ASV3C3-3p9T8uc-23">
          <mxGeometry relative="1" as="geometry" />
        </mxCell>
        <mxCell id="oFbmC6ASV3C3-3p9T8uc-24" value="" style="rounded=0;whiteSpace=wrap;html=1;fontColor=light-dark(#000000,#000000);fillColor=none;strokeColor=light-dark(#000000,#000000);strokeWidth=2;" vertex="1" parent="1">
          <mxGeometry x="280" y="380" width="120" height="40" as="geometry" />
        </mxCell>
        <mxCell id="oFbmC6ASV3C3-3p9T8uc-27" style="edgeStyle=orthogonalEdgeStyle;shape=connector;rounded=0;orthogonalLoop=1;jettySize=auto;html=1;exitX=0.5;exitY=1;exitDx=0;exitDy=0;strokeColor=light-dark(#000000,#000000);align=center;verticalAlign=middle;fontFamily=Helvetica;fontSize=12;fontColor=light-dark(#000000,#000000);labelBackgroundColor=default;endArrow=none;startFill=0;" edge="1" parent="1" source="oFbmC6ASV3C3-3p9T8uc-25">
          <mxGeometry relative="1" as="geometry">
            <mxPoint x="500" y="550" as="targetPoint" />
          </mxGeometry>
        </mxCell>
        <mxCell id="oFbmC6ASV3C3-3p9T8uc-35" style="edgeStyle=orthogonalEdgeStyle;shape=connector;rounded=0;orthogonalLoop=1;jettySize=auto;html=1;exitX=1;exitY=0.5;exitDx=0;exitDy=0;entryX=0.5;entryY=0;entryDx=0;entryDy=0;strokeColor=light-dark(#000000,#000000);align=center;verticalAlign=middle;fontFamily=Helvetica;fontSize=12;fontColor=light-dark(#000000,#000000);labelBackgroundColor=default;endArrow=classic;" edge="1" parent="1" source="oFbmC6ASV3C3-3p9T8uc-25" target="oFbmC6ASV3C3-3p9T8uc-21">
          <mxGeometry relative="1" as="geometry" />
        </mxCell>
        <mxCell id="oFbmC6ASV3C3-3p9T8uc-25" value="" style="rounded=0;whiteSpace=wrap;html=1;fontColor=light-dark(#000000,#000000);fillColor=none;strokeColor=light-dark(#000000,#000000);strokeWidth=2;" vertex="1" parent="1">
          <mxGeometry x="440" y="480" width="120" height="40" as="geometry" />
        </mxCell>
      </root>
    </mxGraphModel>
  </diagram>
</mxfile>
